<?xml version="1.0" encoding="UTF-8" standalone="no"?>
<!-- Created with Inkscape (http://www.inkscape.org/) -->

<svg
   xmlns:dc="http://purl.org/dc/elements/1.1/"
   xmlns:cc="http://creativecommons.org/ns#"
   xmlns:rdf="http://www.w3.org/1999/02/22-rdf-syntax-ns#"
   xmlns:svg="http://www.w3.org/2000/svg"
   xmlns="http://www.w3.org/2000/svg"
   xmlns:xlink="http://www.w3.org/1999/xlink"
   xmlns:sodipodi="http://sodipodi.sourceforge.net/DTD/sodipodi-0.dtd"
   xmlns:inkscape="http://www.inkscape.org/namespaces/inkscape"
   width="32"
   height="32"
   viewBox="0 0 8.4666659 8.4666659"
   version="1.1"
   id="svg8"
   inkscape:version="0.92.3 (2405546, 2018-03-11)"
   sodipodi:docname="MediaXP.svg"
   inkscape:export-filename="C:\Users\Alecca\Documents\Apps\ClassicBrowser\ClassicBrowser\FavoritesXP.png"
   inkscape:export-xdpi="96"
   inkscape:export-ydpi="96">
  <defs
     id="defs2">
    <linearGradient
       inkscape:collect="always"
       id="linearGradient1620">
      <stop
         style="stop-color:#9999cc;stop-opacity:1;"
         offset="0"
         id="stop1616" />
      <stop
         style="stop-color:#9999cc;stop-opacity:0;"
         offset="1"
         id="stop1618" />
    </linearGradient>
    <linearGradient
       inkscape:collect="always"
       id="linearGradient1614">
      <stop
         style="stop-color:#66cc33;stop-opacity:1"
         offset="0"
         id="stop1610" />
      <stop
         style="stop-color:#006600;stop-opacity:1"
         offset="1"
         id="stop1612" />
    </linearGradient>
    <linearGradient
       inkscape:collect="always"
       id="linearGradient1582">
      <stop
         style="stop-color:#9999cc;stop-opacity:1"
         offset="0"
         id="stop1578" />
      <stop
         style="stop-color:#666699;stop-opacity:1"
         offset="1"
         id="stop1580" />
    </linearGradient>
    <linearGradient
       inkscape:collect="always"
       id="linearGradient1570">
      <stop
         style="stop-color:#b4e2ff;stop-opacity:1"
         offset="0"
         id="stop1566" />
      <stop
         id="stop1574"
         offset="0.50000131"
         style="stop-color:#0066cc;stop-opacity:1" />
      <stop
         style="stop-color:#99feff;stop-opacity:1"
         offset="1"
         id="stop1568" />
    </linearGradient>
    <linearGradient
       inkscape:collect="always"
       id="linearGradient961">
      <stop
         style="stop-color:#ffffff;stop-opacity:1"
         offset="0"
         id="stop957" />
      <stop
         style="stop-color:#b4e2ff;stop-opacity:1"
         offset="1"
         id="stop959" />
    </linearGradient>
    <linearGradient
       inkscape:collect="always"
       id="linearGradient909">
      <stop
         style="stop-color:#ffcc66;stop-opacity:1"
         offset="0"
         id="stop905" />
      <stop
         style="stop-color:#ff3300;stop-opacity:1"
         offset="1"
         id="stop907" />
    </linearGradient>
    <marker
       inkscape:isstock="true"
       style="overflow:visible"
       id="marker5174"
       refX="0"
       refY="0"
       orient="auto"
       inkscape:stockid="Arrow1Lend">
      <path
         transform="matrix(-0.8,0,0,-0.8,-10,0)"
         style="fill:#006600;fill-opacity:1;fill-rule:evenodd;stroke:#006600;stroke-width:1.00000003pt;stroke-opacity:1"
         d="M 0,0 5,-5 -12.5,0 5,5 Z"
         id="path5172"
         inkscape:connector-curvature="0" />
    </marker>
    <linearGradient
       inkscape:collect="always"
       id="linearGradient4606">
      <stop
         style="stop-color:#ccccff;stop-opacity:1"
         offset="0"
         id="stop4602" />
      <stop
         style="stop-color:#ffffff;stop-opacity:1"
         offset="1"
         id="stop4604" />
    </linearGradient>
    <linearGradient
       inkscape:collect="always"
       xlink:href="#linearGradient4606"
       id="linearGradient4608"
       x1="14.534333"
       y1="291.41321"
       x2="6.1282482"
       y2="283.19565"
       gradientUnits="userSpaceOnUse"
       gradientTransform="matrix(0.34354985,0,0,0.34354985,-1.5188728,196.21823)" />
    <linearGradient
       inkscape:collect="always"
       xlink:href="#linearGradient909"
       id="linearGradient911"
       x1="1.403165"
       y1="290.34332"
       x2="5.4623208"
       y2="290.34332"
       gradientUnits="userSpaceOnUse"
       gradientTransform="translate(-0.33408691,0.86862596)" />
    <radialGradient
       inkscape:collect="always"
       xlink:href="#linearGradient961"
       id="radialGradient963"
       cx="5.0261645"
       cy="291.25592"
       fx="5.0261645"
       fy="291.25592"
       r="1.4697563"
       gradientUnits="userSpaceOnUse"
       gradientTransform="matrix(1.7821107,0,0,1.7821107,202.38084,-316.703)" />
    <radialGradient
       inkscape:collect="always"
       xlink:href="#linearGradient1570"
       id="radialGradient1572"
       cx="3.5079124"
       cy="292.05551"
       fx="3.5079124"
       fy="292.05551"
       r="2.8554213"
       gradientUnits="userSpaceOnUse"
       gradientTransform="matrix(1.8599567,0,0,1.8599478,-3.8852787,-251.60352)" />
    <radialGradient
       inkscape:collect="always"
       xlink:href="#linearGradient1582"
       id="radialGradient1584"
       cx="4.6777134"
       cy="293.70593"
       fx="4.6777134"
       fy="293.70593"
       r="1.5716494"
       gradientTransform="matrix(0.59118606,0,0,0.81213689,1.4964802,56.180696)"
       gradientUnits="userSpaceOnUse" />
    <radialGradient
       inkscape:collect="always"
       xlink:href="#linearGradient1614"
       id="radialGradient1600"
       cx="1.7156031"
       cy="291.55109"
       fx="1.7156031"
       fy="291.55109"
       r="1.4490426"
       gradientTransform="matrix(2.6830661,0,0,2.3140578,-2.8874735,-382.82464)"
       gradientUnits="userSpaceOnUse" />
    <linearGradient
       inkscape:collect="always"
       xlink:href="#linearGradient1614"
       id="linearGradient1608"
       x1="2.0150075"
       y1="290.87793"
       x2="5.6624866"
       y2="290.87793"
       gradientUnits="userSpaceOnUse" />
    <linearGradient
       inkscape:collect="always"
       xlink:href="#linearGradient1620"
       id="linearGradient1622"
       x1="5.2785731"
       y1="292.08922"
       x2="5.9569736"
       y2="292.20734"
       gradientUnits="userSpaceOnUse" />
  </defs>
  <sodipodi:namedview
     id="base"
     pagecolor="#ffffff"
     bordercolor="#666666"
     borderopacity="1.0"
     inkscape:pageopacity="0.0"
     inkscape:pageshadow="2"
     inkscape:zoom="7.919596"
     inkscape:cx="14.071348"
     inkscape:cy="23.038054"
     inkscape:document-units="mm"
     inkscape:current-layer="g865"
     showgrid="false"
     inkscape:window-width="1920"
     inkscape:window-height="1024"
     inkscape:window-x="-4"
     inkscape:window-y="-4"
     inkscape:window-maximized="1"
     inkscape:snap-to-guides="false"
     inkscape:snap-grids="false"
     inkscape:snap-others="false"
     inkscape:snap-nodes="false"
     units="px" />
  <metadata
     id="metadata5">
    <rdf:RDF>
      <cc:Work
         rdf:about="">
        <dc:format>image/svg+xml</dc:format>
        <dc:type
           rdf:resource="http://purl.org/dc/dcmitype/StillImage" />
        <dc:title></dc:title>
      </cc:Work>
    </rdf:RDF>
  </metadata>
  <g
     inkscape:label="Layer 1"
     inkscape:groupmode="layer"
     id="layer1"
     transform="translate(0,-288.53334)">
    <g
       id="g865"
       transform="translate(0.1837478)">
      <circle
         style="fill:url(#radialGradient1572);fill-opacity:1;stroke:#333366;stroke-width:0.16500001;stroke-linecap:round;stroke-linejoin:bevel;stroke-miterlimit:4;stroke-dasharray:none;stroke-opacity:1"
         id="path1564"
         cx="3.2072341"
         cy="292.22256"
         r="2.7729213" />
      <path
         style="fill:url(#radialGradient1584);fill-opacity:1;stroke:none;stroke-width:0.13469534;stroke-linecap:butt;stroke-linejoin:miter;stroke-miterlimit:4;stroke-dasharray:none;stroke-opacity:1"
         d="m 7.3662046,290.81195 c 0,0 -0.7649991,-0.8325 -1.1924985,-0.7425 -0.4274996,0.09 -0.6749993,3.8925 -0.9449992,4.16249 -0.2699995,0.27001 -1.3499984,-0.0675 -1.4174981,0.78751 -0.0675,0.85499 0.448905,1.39836 1.1914043,0.83586 0.7424989,-0.5625 0.5860927,-0.63337 0.8335934,-2.00586 0.2474997,-1.37251 0.2699995,-3.375 0.922499,-2.81249 0.6524991,0.5625 0.8774986,0.78749 0.9224986,0.42749 0.045,-0.36 -0.3149995,-0.6525 -0.3149995,-0.6525 z"
         id="path1576"
         inkscape:connector-curvature="0"
         sodipodi:nodetypes="csccsccsc" />
      <path
         style="fill:url(#linearGradient1622);fill-opacity:1;stroke:none;stroke-width:0.26458332px;stroke-linecap:butt;stroke-linejoin:miter;stroke-opacity:1"
         d="m 5.3119818,294.20203 c 0,0 0.5261867,-3.13207 0.5595955,-3.35758 0.027912,-0.1884 0.1252827,-0.68487 0.2756216,-0.71828 0.1503391,-0.0334 0.968852,0.42596 1.0523738,0.65982 0.083522,0.23386 0.2338607,0.53454 0.1503392,0.60136 -0.083522,0.0668 -0.7684,-0.73499 -1.0690781,-0.56795 -0.3006783,0.16704 -0.5679478,3.48286 -0.7015825,3.49956 -0.1336349,0.0167 -0.2004521,-0.0417 -0.2004521,-0.0417 z"
         id="path1586"
         inkscape:connector-curvature="0"
         sodipodi:nodetypes="cscscsscc" />
      <path
         style="fill:url(#linearGradient1608);stroke:none;stroke-width:0.26458332px;stroke-linecap:butt;stroke-linejoin:miter;stroke-opacity:1;fill-opacity:1.0"
         d="m 3.1070082,289.53316 c -0.066817,0.0334 -0.5512433,0.56795 -0.7851042,1.05238 -0.2338609,0.48442 -0.4510174,0.81851 -0.1837478,0.65147 0.2672695,-0.16705 0.8853301,-0.63477 1.0022606,-0.68488 0.1169305,-0.0501 0.2171565,0.15034 0.066817,0.28397 -0.1503389,0.13364 -0.3340867,0.23386 -0.434313,0.41761 -0.100226,0.18375 -0.2171563,0.30068 -0.083522,0.45102 0.1336347,0.15034 0.2839739,0.36749 0.4176086,0.41761 0.1336347,0.0501 0.4510174,0.16704 0.5846521,0.0501 0.1336347,-0.11693 0.4844259,-0.25056 0.7015824,-0.23386 0.2171565,0.0167 0.7684,0.0167 0.9354434,-0.11693 0.1670433,-0.13364 0.4677217,-0.7517 0.2672696,-0.93544 -0.2004523,-0.18375 -0.8352173,-1.03567 -1.2862345,-1.10249 -0.4510175,-0.0668 -1.202713,-0.25057 -1.202713,-0.25057 z"
         id="path1588"
         inkscape:connector-curvature="0" />
      <path
         style="fill:url(#radialGradient1600);stroke:none;stroke-width:0.26458332px;stroke-linecap:butt;stroke-linejoin:miter;stroke-opacity:1;fill-opacity:1.0"
         d="m 2.522356,292.50654 c 0.083522,0.10022 0.668174,0.16704 0.8853305,0.16704 0.2171565,0 0.734991,-0.18375 1.0523736,-0.21716 0.3173827,-0.0334 0.5679479,-0.10022 0.5846521,0.0501 0.016703,0.15034 0.233861,0.46772 0,0.71828 -0.2338607,0.25057 -0.4844259,0.63477 -0.5512435,0.83522 -0.066817,0.20045 -0.6848779,0.85192 -0.835217,0.85192 -0.1503392,0 -0.5178349,-0.20045 -0.6848782,-0.31738 -0.1670434,-0.11693 -0.1670434,-0.0501 -0.3507912,-0.25056 -0.1837479,-0.20046 -0.3507913,-0.63477 -0.3674957,-0.95215 -0.016704,-0.31738 0.2672694,-0.88533 0.2672694,-0.88533 z"
         id="path1590"
         inkscape:connector-curvature="0" />
    </g>
  </g>
</svg>
